HIERARCHY
ROOT Hips
{
 OFFSET 0.000000 0.000000 0.000000
 CHANNELS 6 Xposition Yposition Zposition Yrotation Xrotation Zrotation
 JOINT Chest
 {
  OFFSET 0.000000 9.585900 0.002600
  CHANNELS 3 Yrotation Xrotation Zrotation
  JOINT Chest2
  {
   OFFSET 0.000000 9.601200 -0.005300
   CHANNELS 3 Yrotation Xrotation Zrotation
   JOINT Chest3
   {
    OFFSET 0.000000 9.561800 0.000000
    CHANNELS 3 Yrotation Xrotation Zrotation
    JOINT Chest4
    {
     OFFSET 0.000000 9.552100 0.000000
     CHANNELS 3 Yrotation Xrotation Zrotation
     JOINT Neck
     {
      OFFSET 0.000000 14.453000 0.000000
      CHANNELS 3 Yrotation Xrotation Zrotation
      JOINT Head
      {
       OFFSET 0.000000 8.936500 -0.011300
       CHANNELS 3 Yrotation Xrotation Zrotation
       End Site
       {
        OFFSET 0.000000 17.073600 -0.006000
       }
      }
     }
     JOINT RightCollar
     {
      OFFSET -2.921100 9.558500 0.000000
      CHANNELS 3 Yrotation Xrotation Zrotation
      JOINT RightShoulder
      {
       OFFSET -13.519700 0.000000 0.000000
       CHANNELS 3 Yrotation Xrotation Zrotation
       JOINT RightElbow
       {
        OFFSET 0.000000 -29.696600 0.000000
        CHANNELS 3 Yrotation Xrotation Zrotation
        JOINT RightWrist
        {
         OFFSET 0.000000 -24.004700 0.000000
         CHANNELS 3 Yrotation Xrotation Zrotation
         End Site
         {
          OFFSET 0.000000 -17.728500 0.000000
         }
        }
       }
      }
     }
     JOINT LeftCollar
     {
      OFFSET 2.921100 9.558500 0.000000
      CHANNELS 3 Yrotation Xrotation Zrotation
      JOINT LeftShoulder
      {
       OFFSET 13.519700 0.000000 0.000000
       CHANNELS 3 Yrotation Xrotation Zrotation
       JOINT LeftElbow
       {
        OFFSET 0.000000 -29.696600 0.000000
        CHANNELS 3 Yrotation Xrotation Zrotation
        JOINT LeftWrist
        {
         OFFSET 0.000000 -24.004700 0.000000
         CHANNELS 3 Yrotation Xrotation Zrotation
         End Site
         {
          OFFSET 0.000000 -17.728500 0.000000
         }
        }
       }
      }
     }
    }
   }
  }
 }
 JOINT RightHip
 {
  OFFSET -7.771700 -0.012900 -0.001300
  CHANNELS 3 Yrotation Xrotation Zrotation
  JOINT RightKnee
  {
   OFFSET 0.000000 -40.869800 0.001200
   CHANNELS 3 Yrotation Xrotation Zrotation
   JOINT RightAnkle
   {
    OFFSET 0.000000 -39.717900 0.002100
    CHANNELS 3 Yrotation Xrotation Zrotation
    JOINT RightToe
    {
     OFFSET 0.000000 -4.965400 11.033500
     CHANNELS 3 Yrotation Xrotation Zrotation
     End Site
     {
      OFFSET 0.000000 -1.423100 5.872300
     }
    }
   }
  }
 }
 JOINT LeftHip
 {
  OFFSET 7.771700 -0.012900 -0.001300
  CHANNELS 3 Yrotation Xrotation Zrotation
  JOINT LeftKnee
  {
   OFFSET 0.000000 -40.869800 0.001200
   CHANNELS 3 Yrotation Xrotation Zrotation
   JOINT LeftAnkle
   {
    OFFSET 0.000000 -39.717900 0.002100
    CHANNELS 3 Yrotation Xrotation Zrotation
    JOINT LeftToe
    {
     OFFSET 0.000000 -4.965400 11.033500
     CHANNELS 3 Yrotation Xrotation Zrotation
     End Site
     {
      OFFSET 0.000000 -1.423100 5.872300
     }
    }
   }
  }
 }
}
MOTION
Frames: 9
Frame Time: 0.008333
0.000000 85.388000 0.000000 0.000000 -5.767877 0.000000 0.000000 11.653817 0.000000 0.000000 -5.885947 0.000000 0.000000 -0.000000 0.000000 0.000000 -0.000000 0.000000 0.000000 12.528835 0.000000 0.000000 0.711642 0.000000 0.000000 -0.000000 0.000000 0.000000 0.000000 -90.000000 0.000000 -2.309062 0.000000 0.000000 2.309062 0.000000 0.000000 -0.000000 0.000000 0.000000 -0.000000 90.000000 0.000000 -2.309062 0.000000 0.000000 2.309062 0.000000 0.000000 8.520406 0.000000 0.000000 1.905762 0.000000 -0.000000 -4.658285 0.000000 0.000000 -0.000000 0.000000 0.000000 8.520406 0.000000 0.000000 1.905762 0.000000 -0.000000 -4.658285 0.000000 0.000000 -0.000000 0.000000
-30.462476 51.968993 26.343688 -178.120665 -31.746075 -1.446550 2.258897 27.057681 -1.479178 0.414430 4.675165 -0.264605 0.648731 7.403818 -0.400891 1.843001 22.057780 -0.972247 -2.299068 16.870497 -7.667826 -0.702059 -7.718692 -7.805124 12.113616 10.692562 14.847767 27.789976 -13.865844 -38.138902 -84.920243 -53.886807 23.474602 -11.547576 -9.403566 -6.496972 -10.896230 12.962723 -18.428017 -29.707547 -9.389337 41.985037 128.586443 -47.129452 -72.837877 19.435679 1.346114 5.151162 -10.412623 -50.275220 -0.156240 -54.882303 81.158435 -62.908545 -3.963532 -6.140926 6.222577 0.114382 -0.370725 0.045168 -3.382734 -49.059981 -2.280867 44.176662 81.543898 50.192399 -0.771555 -8.239808 -4.973483 0.092387 0.362504 0.047002
-30.460154 51.969945 26.343412 -178.121068 -31.744989 -1.453630 2.261932 27.056009 -1.472680 0.415937 4.673083 -0.266674 0.648027 7.402076 -0.401809 1.840763 22.055711 -0.975423 -2.291175 16.884853 -7.672691 -0.690359 -7.709332 -7.812714 12.116896 10.692285 14.833766 27.800425 -13.861426 -38.137632 -84.904274 -53.909754 23.486529 -11.552186 -9.417940 -6.462468 -10.897588 12.965610 -18.419868 -29.714196 -9.385095 41.990446 128.576419 -47.134246 -72.827349 19.440376 1.340560 5.143258 -10.426280 -50.270367 -0.137160 -54.839002 81.163575 -62.865150 -3.979585 -6.150721 6.222751 0.122387 -0.363661 0.043567 -3.392270 -49.059720 -2.267068 44.174047 81.543233 50.189225 -0.767607 -8.239198 -4.974658 0.096011 0.361107 0.045626
-30.458941 51.971107 26.342954 -178.118124 -31.745212 -1.457198 2.261446 27.054839 -1.474551 0.417354 4.671811 -0.265017 0.647523 7.400300 -0.402569 1.837448 22.051938 -0.980542 -2.281470 16.897609 -7.675352 -0.687879 -7.705689 -7.810258 12.118917 10.692223 14.824529 27.823959 -13.829120 -38.160525 -84.931227 -53.918746 23.516746 -11.562217 -9.434177 -6.415919 -10.898644 12.973021 -18.411300 -29.719141 -9.383147 41.993688 128.558523 -47.138979 -72.857322 19.444929 1.317001 5.169389 -10.431805 -50.268310 -0.134286 -54.829648 81.168102 -62.852747 -3.982777 -6.156181 6.225034 0.121078 -0.369065 0.044786 -3.397149 -49.059473 -2.262648 44.188816 81.542832 50.203475 -0.767168 -8.237325 -4.975278 0.094707 0.358522 0.045003
-30.460493 51.972051 26.342969 -178.107411 -31.742683 -1.450632 2.250037 27.050120 -1.491296 0.414418 4.672443 -0.264003 0.647651 7.398836 -0.403275 1.838990 22.052447 -0.979043 -2.272181 16.906238 -7.694772 -0.692861 -7.703097 -7.794154 12.115821 10.688827 14.809365 27.832727 -13.815039 -38.162296 -84.930645 -53.945770 23.540728 -11.569665 -9.456773 -6.366156 -10.899923 12.976337 -18.408002 -29.720607 -9.382934 41.994907 128.556654 -47.139128 -72.860281 19.440785 1.320706 5.157517 -10.427681 -50.271259 -0.151957 -54.822269 81.171194 -62.849606 -3.985262 -6.160829 6.238455 0.117911 -0.367373 0.036370 -3.390712 -49.063031 -2.280614 44.173476 81.540708 50.184372 -0.763908 -8.227270 -4.970834 0.090652 0.352501 0.043972
-30.461181 51.973185 26.342848 -178.103339 -31.741899 -1.448860 2.242363 27.048168 -1.501281 0.414837 4.671710 -0.264418 0.648422 7.398604 -0.402315 1.841581 22.051647 -0.978962 -2.263975 16.912793 -7.702875 -0.664234 -7.683253 -7.823652 12.112185 10.685829 14.792235 27.838380 -13.804657 -38.160731 -84.892415 -54.024657 23.574847 -11.606106 -9.456055 -6.362100 -10.901445 12.978045 -18.398401 -29.727115 -9.386831 41.999311 128.536522 -47.143769 -72.861216 19.448632 1.308060 5.175802 -10.433863 -50.266259 -0.156940 -54.788480 81.166440 -62.819859 -3.970215 -6.174717 6.246500 0.107519 -0.359386 0.031774 -3.388150 -49.064078 -2.287516 44.172273 81.538223 50.181413 -0.759744 -8.219794 -4.967457 0.084909 0.347393 0.042241
-30.460836 51.973546 26.344086 -178.112751 -31.732682 -1.449215 2.250033 27.037176 -1.501856 0.416375 4.671334 -0.263573 0.649269 7.399582 -0.399543 1.838803 22.044101 -0.992739 -2.252134 16.923325 -7.695008 -0.657417 -7.678648 -7.827773 12.114253 10.685856 14.784998 27.844465 -13.795024 -38.160663 -84.902311 -54.031067 23.592701 -11.595235 -9.503944 -6.297023 -10.896552 12.986767 -18.378297 -29.732680 -9.389625 41.999590 128.528283 -47.143290 -72.872634 19.452393 1.304193 5.181780 -10.437215 -50.272888 -0.146265 -54.766238 81.153324 -62.793545 -3.959285 -6.168359 6.240267 0.110419 -0.363470 0.035500 -3.383991 -49.072274 -2.276259 44.143035 81.539776 50.151302 -0.761382 -8.218439 -4.967332 0.085979 0.347037 0.044552
-30.461640 51.974200 26.344923 -178.114165 -31.727200 -1.450112 2.250486 27.031024 -1.503371 0.416074 4.669525 -0.266514 0.651272 7.398630 -0.400492 1.841304 22.044688 -0.989812 -2.246188 16.927648 -7.697243 -0.650720 -7.674034 -7.831458 12.111401 10.681735 14.767181 27.849830 -13.784727 -38.164383 -84.910910 -54.034978 23.612409 -11.579711 -9.557154 -6.238181 -10.898037 12.988212 -18.369459 -29.746594 -9.389942 42.012442 128.518100 -47.138348 -72.865076 19.455129 1.313227 5.171830 -10.442529 -50.277045 -0.141817 -54.753066 81.146929 -62.780348 -3.949046 -6.161750 6.237930 0.104672 -0.371152 0.038222 -3.379415 -49.077965 -2.275202 44.130011 81.538445 50.139911 -0.764632 -8.212313 -4.966949 0.090014 0.344293 0.044628
-30.462433 51.974945 26.345623 -178.112522 -31.723253 -1.455358 2.248799 27.026743 -1.501962 0.415895 4.666463 -0.271899 0.651474 7.398457 -0.398533 1.845865 22.045010 -0.987939 -2.236848 16.932947 -7.706906 -0.637314 -7.664856 -7.840929 12.110845 10.680574 14.760242 27.851775 -13.779482 -38.166760 -84.885564 -54.081517 23.622875 -11.576913 -9.592474 -6.201802 -10.916987 12.982753 -18.358685 -29.731190 -9.391165 42.006905 128.521554 -47.135491 -72.876294 19.444689 1.335373 5.146068 -10.464559 -50.275702 -0.123556 -54.716055 81.141122 -62.751845 -3.942691 -6.160931 6.236156 0.103537 -0.373687 0.041865 -3.382021 -49.084930 -2.273544 44.127003 81.540061 50.140357 -0.757842 -8.199472 -4.966697 0.085955 0.334468 0.043346
